<?xml version="1.0" encoding="utf-8"?>
<!-- Generator: Adobe Illustrator 24.3.0, SVG Export Plug-In . SVG Version: 6.00 Build 0)  -->
<svg version="1.1" id="Слой_3" xmlns="http://www.w3.org/2000/svg" xmlns:xlink="http://www.w3.org/1999/xlink" x="0px" y="0px"
	 viewBox="0 0 595.28 201.45" style="enable-background:new 0 0 595.28 201.45;" xml:space="preserve">
<style type="text/css">
	.st0{fill:none;}
	.st1{fill:#FFFFFF;}
</style>
<g>
	<rect x="193.75" y="0.95" class="st0" width="401.53" height="200.5"/>
	<path class="st1" d="M217.16,0.97l6.94,46.69h-12.41l-0.65-8.39h-4.34l-0.73,8.39h-12.55l6.19-46.69H217.16z M210.73,30.99
		c-0.61-5.29-1.23-11.82-1.85-19.61c-1.24,8.94-2.01,15.48-2.33,19.61H210.73z"/>
	<path class="st1" d="M253.91,28.31c0,4.69-0.11,8.01-0.33,9.96c-0.22,1.95-0.91,3.73-2.08,5.35c-1.16,1.61-2.74,2.85-4.71,3.72
		c-1.98,0.87-4.29,1.3-6.92,1.3c-2.5,0-4.74-0.41-6.73-1.23s-3.59-2.04-4.8-3.68c-1.21-1.63-1.93-3.41-2.16-5.33
		s-0.35-5.29-0.35-10.09v-7.99c0-4.69,0.11-8.01,0.33-9.96c0.22-1.95,0.91-3.73,2.08-5.35c1.16-1.62,2.73-2.85,4.71-3.72
		c1.98-0.87,4.29-1.3,6.92-1.3c2.5,0,4.74,0.41,6.73,1.23c1.99,0.82,3.59,2.04,4.8,3.68c1.21,1.63,1.93,3.41,2.16,5.33
		c0.23,1.92,0.35,5.29,0.35,10.09V28.31z M241.77,12.97c0-2.17-0.12-3.56-0.36-4.17c-0.24-0.61-0.74-0.91-1.49-0.91
		c-0.63,0-1.12,0.25-1.46,0.74c-0.34,0.49-0.5,1.94-0.5,4.34v21.8c0,2.71,0.11,4.38,0.33,5.02c0.22,0.63,0.74,0.95,1.54,0.95
		c0.83,0,1.36-0.37,1.59-1.1c0.23-0.73,0.35-2.47,0.35-5.22V12.97z"/>
	<path class="st1" d="M269.88,11.96h6.83l-2.42,15.66l2.42,16.47h-6.83l-2.42-16.47L269.88,11.96z M280.47,11.96h6.83l-2.45,15.66
		l2.45,16.47h-6.83l-2.45-16.47L280.47,11.96z"/>
	<path class="st1" d="M318.68,0.97v46.69h-12.14V28.05h-3.63v19.61h-12.14V0.97h12.14v16.7h3.63V0.97H318.68z"/>
	<path class="st1" d="M350.66,47.66h-10.15V26.41l-6.32,21.25h-10.64V0.94h10.15v21.08l6.81-21.08h10.15V47.66z"/>
	<path class="st1" d="M379.96,0.97v9.34h-7.21v37.34h-12.14V10.32h-7.18V0.97H379.96z"/>
	<path class="st1" d="M409.83,47.66h-10.15V26.41l-6.32,21.25h-10.64V0.94h10.15v21.08l6.81-21.08h10.15V47.66z"/>
	<path class="st1" d="M453.61,47.66h-10.15V26.98l-8.1,20.68h-10.61V9.39h10.15v20.5l7.96-20.5h10.76V47.66z"/>
	<path class="st1" d="M493.95,47.66h-9.98V21.27l-4.84,26.39h-6.37l-5.02-26.39v26.39h-9.98V9.39h14.44l3.73,21.17l3.38-21.17h14.64
		V47.66z"/>
	<path class="st1" d="M524.49,29.2h-15.08v8.28c0,1.73,0.12,2.85,0.38,3.35c0.25,0.5,0.73,0.75,1.44,0.75
		c0.88,0,1.48-0.33,1.77-0.99c0.3-0.66,0.45-1.95,0.45-3.85v-5.05h11.04v2.83c0,2.36-0.15,4.18-0.45,5.45s-1,2.62-2.09,4.07
		c-1.1,1.44-2.48,2.52-4.17,3.24c-1.68,0.72-3.79,1.08-6.33,1.08c-2.46,0-4.63-0.36-6.52-1.07c-1.88-0.71-3.35-1.69-4.4-2.93
		c-1.05-1.24-1.77-2.6-2.18-4.1c-0.4-1.49-0.61-3.66-0.61-6.5V22.6c0-3.35,0.45-5.98,1.36-7.92c0.9-1.93,2.38-3.41,4.44-4.44
		c2.06-1.03,4.42-1.54,7.09-1.54c3.27,0,5.96,0.62,8.09,1.86c2.12,1.24,3.61,2.88,4.47,4.93s1.28,4.93,1.28,8.64V29.2z
		 M512.81,22.98v-2.8c0-1.98-0.11-3.26-0.32-3.84c-0.21-0.58-0.64-0.87-1.3-0.87c-0.81,0-1.31,0.25-1.5,0.74s-0.29,1.81-0.29,3.97
		v2.8H512.81z"/>
	<path class="st1" d="M555.63,47.66h-11.59v-14.1h-4.18v14.1H528.3V9.39h11.56v13.76h4.18V9.39h11.59V47.66z"/>
	<path class="st1" d="M588.65,47.66H578.5V26.98l-8.1,20.68h-10.61V9.39h10.15v20.5l7.96-20.5h10.76V47.66z"/>
	<path class="st1" d="M224.12,118.53h-12.17V81.16h-3.6v37.37h-12.17V71.82h27.94V118.53z"/>
	<path class="st1" d="M236.37,109.02v9.52h-8.8v-9.52H236.37z"/>
	<path class="st1" d="M266.97,118.53h-10.15V97.28l-6.32,21.25h-10.64V71.82h10.15V92.9l6.81-21.08h10.15V118.53z"/>
	<path class="st1" d="M279.23,109.02v9.52h-8.8v-9.52H279.23z"/>
	<path class="st1" d="M311.06,92.17h-12.14v-8.11c0-2.36-0.13-3.83-0.39-4.42c-0.26-0.58-0.83-0.88-1.72-0.88
		c-1,0-1.63,0.36-1.9,1.07c-0.27,0.71-0.4,2.25-0.4,4.61v21.69c0,2.27,0.13,3.75,0.4,4.44c0.27,0.69,0.87,1.04,1.82,1.04
		c0.9,0,1.49-0.35,1.77-1.04c0.28-0.69,0.42-2.32,0.42-4.89v-5.87h12.14v1.82c0,4.83-0.34,8.26-1.02,10.28
		c-0.68,2.02-2.19,3.79-4.53,5.31c-2.34,1.52-5.21,2.28-8.64,2.28c-3.56,0-6.49-0.64-8.8-1.93s-3.84-3.07-4.58-5.35
		c-0.75-2.28-1.12-5.7-1.12-10.28V88.31c0-3.36,0.12-5.89,0.35-7.57c0.23-1.68,0.92-3.3,2.06-4.86c1.14-1.56,2.73-2.78,4.76-3.68
		c2.03-0.89,4.36-1.34,6.99-1.34c3.58,0,6.53,0.69,8.85,2.07s3.85,3.11,4.58,5.17c0.73,2.06,1.1,5.27,1.1,9.63V92.17z"/>
	<path class="st1" d="M342.41,118.53h-11.59v-14.1h-4.18v14.1h-11.56V80.26h11.56v13.76h4.18V80.26h11.59V118.53z"/>
	<path class="st1" d="M372.95,100.08h-15.08v8.28c0,1.73,0.12,2.85,0.38,3.35c0.25,0.5,0.73,0.75,1.44,0.75
		c0.88,0,1.48-0.33,1.77-0.99c0.3-0.66,0.45-1.95,0.45-3.85v-5.05h11.04v2.83c0,2.36-0.15,4.18-0.45,5.45s-1,2.62-2.09,4.07
		c-1.1,1.44-2.48,2.52-4.17,3.24c-1.68,0.72-3.79,1.08-6.33,1.08c-2.46,0-4.63-0.36-6.52-1.07c-1.88-0.71-3.35-1.69-4.4-2.93
		c-1.05-1.24-1.77-2.6-2.18-4.1c-0.4-1.49-0.61-3.66-0.61-6.5V93.47c0-3.35,0.45-5.98,1.36-7.92c0.9-1.93,2.38-3.41,4.44-4.44
		c2.06-1.03,4.42-1.54,7.09-1.54c3.27,0,5.96,0.62,8.09,1.86c2.12,1.24,3.61,2.88,4.47,4.93s1.28,4.93,1.28,8.64V100.08z
		 M361.27,93.85v-2.8c0-1.98-0.11-3.26-0.32-3.84c-0.21-0.58-0.64-0.87-1.3-0.87c-0.81,0-1.31,0.25-1.5,0.74s-0.29,1.81-0.29,3.97
		v2.8H361.27z"/>
	<path class="st1" d="M376.76,118.53V80.26h18.31v6.6h-6.69v31.66H376.76z"/>
	<path class="st1" d="M426.01,118.53h-10.15V97.86l-8.1,20.68h-10.61V80.26h10.15v20.5l7.96-20.5h10.76V118.53z"/>
	<path class="st1" d="M442.02,80.26l-0.2,3.38c1.04-1.37,2.18-2.39,3.43-3.06c1.25-0.67,2.61-1.01,4.09-1.01
		c1.81,0,3.37,0.49,4.69,1.46c1.32,0.97,2.14,2.09,2.47,3.36c0.33,1.27,0.49,3.42,0.49,6.46v16.12c0,3.48-0.21,5.96-0.62,7.43
		c-0.41,1.47-1.26,2.64-2.54,3.52s-2.82,1.31-4.63,1.31c-1.44,0-2.78-0.34-4.01-1.01c-1.23-0.67-2.36-1.68-3.37-3v8.77h-11.65V80.26
		H442.02z M445.33,91.4c0-2.36-0.09-3.8-0.26-4.3c-0.17-0.5-0.65-0.75-1.44-0.75c-0.77,0-1.26,0.29-1.49,0.87
		c-0.22,0.58-0.33,1.97-0.33,4.18v15.86c0,2.31,0.12,3.75,0.35,4.33c0.23,0.58,0.73,0.86,1.5,0.86c0.75,0,1.22-0.26,1.4-0.79
		c0.18-0.53,0.27-1.81,0.27-3.85V91.4z"/>
	<path class="st1" d="M487.21,100.08h-15.08v8.28c0,1.73,0.12,2.85,0.38,3.35c0.25,0.5,0.73,0.75,1.44,0.75
		c0.88,0,1.48-0.33,1.77-0.99c0.3-0.66,0.45-1.95,0.45-3.85v-5.05h11.04v2.83c0,2.36-0.15,4.18-0.45,5.45s-1,2.62-2.09,4.07
		c-1.1,1.44-2.48,2.52-4.17,3.24c-1.68,0.72-3.79,1.08-6.33,1.08c-2.46,0-4.63-0.36-6.52-1.07c-1.88-0.71-3.35-1.69-4.4-2.93
		c-1.05-1.24-1.77-2.6-2.18-4.1c-0.4-1.49-0.61-3.66-0.61-6.5V93.47c0-3.35,0.45-5.98,1.36-7.92c0.9-1.93,2.38-3.41,4.44-4.44
		c2.06-1.03,4.42-1.54,7.09-1.54c3.27,0,5.96,0.62,8.09,1.86c2.12,1.24,3.61,2.88,4.47,4.93s1.28,4.93,1.28,8.64V100.08z
		 M471.26,70.2v7.5h-7.53v-7.5H471.26z M475.55,93.85v-2.8c0-1.98-0.11-3.26-0.32-3.84c-0.21-0.58-0.64-0.87-1.3-0.87
		c-0.81,0-1.31,0.25-1.5,0.74c-0.19,0.49-0.29,1.81-0.29,3.97v2.8H475.55z M483.83,70.2v7.5h-7.53v-7.5H483.83z"/>
	<path class="st1" d="M518,108.44c0,3.9-0.85,6.56-2.55,7.97c-1.7,1.41-5.4,2.12-11.09,2.12h-13.35V80.26h13.76
		c4.71,0,7.95,0.78,9.73,2.34c1.78,1.56,2.67,4.22,2.67,7.99c0,4.33-2.25,6.79-6.75,7.38c2.34,0.39,4.2,1.3,5.55,2.75
		S518,104,518,106.19V108.44z M502.58,94.48c1.77,0,2.85-0.22,3.24-0.66c0.39-0.44,0.59-1.32,0.59-2.62c0-1.1-0.22-1.85-0.66-2.28
		s-1.5-0.63-3.17-0.63V94.48z M506.41,106.65v-1.3c0-1.65-0.22-2.69-0.66-3.1c-0.44-0.41-1.5-0.62-3.17-0.62v8.85
		c1.56,0,2.58-0.23,3.08-0.68C506.16,109.36,506.41,108.3,506.41,106.65z"/>
	<path class="st1" d="M531.79,95.09h-10.93v-2.57c0-2.96,0.34-5.24,1.02-6.85c0.68-1.6,2.05-3.02,4.11-4.25
		c2.06-1.23,4.73-1.85,8.02-1.85c3.94,0,6.91,0.7,8.91,2.09c2,1.39,3.2,3.1,3.6,5.13c0.4,2.03,0.61,6.21,0.61,12.53v19.21H535.8
		v-3.41c-0.71,1.37-1.63,2.39-2.75,3.08s-2.47,1.03-4.02,1.03c-2.04,0-3.91-0.57-5.61-1.72s-2.55-3.65-2.55-7.51v-3.14
		c0-2.86,0.45-4.82,1.36-5.85c0.9-1.04,3.14-2.25,6.72-3.63c3.83-1.5,5.87-2.51,6.14-3.03c0.27-0.52,0.4-1.58,0.4-3.17
		c0-2-0.15-3.3-0.45-3.91c-0.3-0.61-0.79-0.91-1.49-0.91c-0.79,0-1.28,0.26-1.47,0.76c-0.19,0.51-0.29,1.83-0.29,3.96V95.09z
		 M535.48,100.34c-1.87,1.37-2.95,2.51-3.24,3.43c-0.3,0.92-0.45,2.25-0.45,3.98c0,1.98,0.13,3.26,0.39,3.84
		c0.26,0.58,0.77,0.86,1.54,0.86c0.73,0,1.21-0.23,1.43-0.68c0.22-0.45,0.33-1.64,0.33-3.56V100.34z"/>
	<path class="st1" d="M556.94,82.83l2.42,15.66l-2.42,16.47h-6.83l2.42-16.47l-2.42-15.66H556.94z M567.49,82.83l2.45,15.66
		l-2.45,16.47h-6.83l2.45-16.47l-2.45-15.66H567.49z"/>
	<path class="st1" d="M224.46,178.47c0,3.48-0.45,5.98-1.36,7.5c-0.9,1.52-2.27,2.47-4.11,2.85c-1.84,0.38-4.76,0.58-8.78,0.58
		h-14.04v-46.72h23.79v8.1h-11.62v7.9h1.87c3.75,0,6.58,0.22,8.51,0.66c1.92,0.44,3.36,1.42,4.31,2.93
		c0.95,1.51,1.43,3.88,1.43,7.11V178.47z M212.29,177.06v-6.75c0-1.96-0.2-3.15-0.59-3.58c-0.39-0.42-1.51-0.66-3.36-0.72v15.34
		c1.54,0,2.58-0.2,3.13-0.59S212.29,179.14,212.29,177.06z"/>
	<path class="st1" d="M238.82,165.96h-10.93v-2.57c0-2.96,0.34-5.24,1.02-6.85c0.68-1.6,2.05-3.02,4.11-4.25
		c2.06-1.23,4.73-1.85,8.02-1.85c3.94,0,6.91,0.7,8.91,2.09c2,1.39,3.2,3.1,3.6,5.13s0.61,6.21,0.61,12.53v19.21h-11.33v-3.41
		c-0.71,1.37-1.63,2.39-2.75,3.08s-2.47,1.03-4.02,1.03c-2.04,0-3.91-0.57-5.61-1.72s-2.55-3.65-2.55-7.51v-3.14
		c0-2.86,0.45-4.82,1.36-5.85c0.9-1.04,3.14-2.25,6.72-3.63c3.83-1.5,5.87-2.51,6.14-3.03c0.27-0.52,0.4-1.58,0.4-3.17
		c0-2-0.15-3.3-0.45-3.91c-0.3-0.61-0.79-0.91-1.49-0.91c-0.79,0-1.28,0.26-1.47,0.76s-0.29,1.83-0.29,3.96V165.96z M242.51,171.21
		c-1.86,1.37-2.95,2.51-3.24,3.43c-0.3,0.92-0.45,2.25-0.45,3.98c0,1.98,0.13,3.26,0.39,3.84c0.26,0.58,0.77,0.86,1.54,0.86
		c0.73,0,1.21-0.23,1.43-0.68c0.22-0.45,0.33-1.64,0.33-3.56V171.21z"/>
	<path class="st1" d="M278.82,168.9c1.83,0.58,3.17,1.42,4.04,2.54c0.87,1.12,1.3,2.85,1.3,5.22c0,2.61-0.19,4.51-0.58,5.7
		c-0.38,1.18-1.13,2.38-2.23,3.6c-1.11,1.22-2.62,2.1-4.54,2.64c-1.92,0.54-4.06,0.81-6.4,0.81c-4.67,0-7.94-0.91-9.81-2.74
		c-1.86-1.83-2.8-5.14-2.8-9.95v-2.8h11.04v5.39c0,1.92,0.67,2.88,2.02,2.88c0.71,0,1.25-0.27,1.63-0.82
		c0.38-0.55,0.56-1.98,0.56-4.31v-2.42c0-1.11-0.38-1.88-1.12-2.31c-0.75-0.42-2.31-0.63-4.67-0.63v-5.45h0.89
		c1.63,0,2.7-0.04,3.2-0.12c0.5-0.08,0.91-0.35,1.23-0.82c0.32-0.47,0.48-1.26,0.48-2.38v-0.81c0-1.63-0.18-2.67-0.53-3.11
		c-0.36-0.44-0.87-0.66-1.54-0.66c-1.42,0-2.13,0.85-2.13,2.54V164H257.8v-1.7c0-4.04,0.98-6.91,2.96-8.61
		c1.97-1.7,5.26-2.55,9.88-2.55c4.42,0,7.7,0.82,9.83,2.45c2.13,1.63,3.2,4.16,3.2,7.58c0,2.31-0.35,4.02-1.04,5.15
		C281.94,167.44,280.67,168.3,278.82,168.9z"/>
	<path class="st1" d="M298.4,165.96h-10.93v-2.57c0-2.96,0.34-5.24,1.02-6.85c0.68-1.6,2.05-3.02,4.11-4.25
		c2.06-1.23,4.73-1.85,8.02-1.85c3.94,0,6.91,0.7,8.91,2.09c2,1.39,3.2,3.1,3.6,5.13c0.4,2.03,0.61,6.21,0.61,12.53v19.21h-11.33
		v-3.41c-0.71,1.37-1.63,2.39-2.75,3.08c-1.12,0.68-2.47,1.03-4.02,1.03c-2.04,0-3.91-0.57-5.61-1.72s-2.55-3.65-2.55-7.51v-3.14
		c0-2.86,0.45-4.82,1.36-5.85c0.9-1.04,3.14-2.25,6.72-3.63c3.83-1.5,5.87-2.51,6.14-3.03c0.27-0.52,0.4-1.58,0.4-3.17
		c0-2-0.15-3.3-0.45-3.91c-0.3-0.61-0.79-0.91-1.49-0.91c-0.79,0-1.28,0.26-1.47,0.76c-0.19,0.51-0.29,1.83-0.29,3.96V165.96z
		 M302.09,171.21c-1.87,1.37-2.95,2.51-3.24,3.43c-0.3,0.92-0.45,2.25-0.45,3.98c0,1.98,0.13,3.26,0.39,3.84
		c0.26,0.58,0.77,0.86,1.54,0.86c0.73,0,1.21-0.23,1.43-0.68c0.22-0.45,0.33-1.64,0.33-3.56V171.21z"/>
	<path class="st1" d="M372.2,166.54c0,3.06-0.14,5.26-0.43,6.6c-0.4,1.87-1.26,3.55-2.57,5.05c-2.04,2.33-5.87,3.49-11.51,3.49
		h-2.13v7.73h-12.17v-7.73h-1.88c-5.65,0-9.5-1.16-11.53-3.49c-1.31-1.5-2.16-3.18-2.57-5.05c-0.29-1.35-0.43-3.55-0.43-6.6v-0.81
		c0-3.06,0.14-5.26,0.43-6.6c0.4-1.86,1.26-3.55,2.57-5.05c2.02-2.27,5.86-3.4,11.53-3.4c0.42,0,1.05-0.03,1.88-0.09v-7.9h12.17v7.9
		c0.98,0.06,1.69,0.09,2.13,0.09c5.67,0,9.51,1.13,11.51,3.4c1.31,1.5,2.16,3.18,2.57,5.05c0.29,1.35,0.43,3.55,0.43,6.6V166.54z
		 M343.39,174.41v-16.55h-1.01c-0.9,0-1.67,0.48-2.29,1.44c-0.62,0.96-0.94,2.24-0.94,3.84v6.03c0,1.58,0.31,2.85,0.94,3.81
		c0.62,0.96,1.39,1.44,2.29,1.44H343.39z M360.06,169.16v-6.03c0-1.6-0.31-2.87-0.94-3.84s-1.4-1.44-2.32-1.44h-1.24v16.55h1.24
		c0.92,0,1.7-0.48,2.32-1.44C359.75,172.01,360.06,170.74,360.06,169.16z"/>
	<path class="st1" d="M392.93,189.4v-30.25h-4.12v19.32c0,3.52-0.4,6.03-1.21,7.54c-0.81,1.51-2.08,2.45-3.82,2.83
		c-1.74,0.38-4.59,0.56-8.55,0.56h-1.9v-6.26c1.48-0.02,2.5-0.21,3.06-0.56c0.56-0.36,0.84-1.61,0.84-3.76v-27.68h27.28v38.27
		H392.93z"/>
	<path class="st1" d="M434.75,170.95h-15.08v8.28c0,1.73,0.12,2.85,0.38,3.35c0.25,0.5,0.73,0.75,1.44,0.75
		c0.88,0,1.48-0.33,1.77-0.99c0.3-0.66,0.45-1.95,0.45-3.85v-5.05h11.04v2.83c0,2.36-0.15,4.18-0.45,5.45s-1,2.62-2.09,4.07
		c-1.1,1.44-2.48,2.52-4.17,3.24c-1.68,0.72-3.79,1.08-6.33,1.08c-2.46,0-4.63-0.36-6.52-1.07c-1.88-0.71-3.35-1.69-4.4-2.93
		c-1.05-1.24-1.77-2.6-2.18-4.1c-0.4-1.49-0.61-3.66-0.61-6.5v-11.16c0-3.35,0.45-5.98,1.36-7.92c0.9-1.93,2.38-3.41,4.44-4.44
		c2.06-1.03,4.42-1.54,7.09-1.54c3.27,0,5.96,0.62,8.09,1.86c2.12,1.24,3.61,2.88,4.47,4.93s1.28,4.93,1.28,8.64V170.95z
		 M423.07,164.72v-2.8c0-1.98-0.11-3.26-0.32-3.84c-0.21-0.58-0.64-0.87-1.3-0.87c-0.81,0-1.31,0.25-1.5,0.74s-0.29,1.81-0.29,3.97
		v2.8H423.07z"/>
	<path class="st1" d="M465.95,181.36h4.12v-30.22h11.65v38.27h-43.17v-38.27h11.62v30.22h4.12v-30.22h11.65V181.36z"/>
	<path class="st1" d="M512.24,170.95h-15.08v8.28c0,1.73,0.12,2.85,0.38,3.35c0.25,0.5,0.73,0.75,1.44,0.75
		c0.88,0,1.48-0.33,1.77-0.99c0.3-0.66,0.45-1.95,0.45-3.85v-5.05h11.04v2.83c0,2.36-0.15,4.18-0.45,5.45s-1,2.62-2.09,4.07
		c-1.1,1.44-2.48,2.52-4.17,3.24c-1.68,0.72-3.79,1.08-6.33,1.08c-2.46,0-4.63-0.36-6.52-1.07c-1.88-0.71-3.35-1.69-4.4-2.93
		c-1.05-1.24-1.77-2.6-2.18-4.1c-0.4-1.49-0.61-3.66-0.61-6.5v-11.16c0-3.35,0.45-5.98,1.36-7.92c0.9-1.93,2.38-3.41,4.44-4.44
		c2.06-1.03,4.42-1.54,7.09-1.54c3.27,0,5.96,0.62,8.09,1.86c2.12,1.24,3.61,2.88,4.47,4.93s1.28,4.93,1.28,8.64V170.95z
		 M500.56,164.72v-2.8c0-1.98-0.11-3.26-0.32-3.84c-0.21-0.58-0.64-0.87-1.3-0.87c-0.81,0-1.31,0.25-1.5,0.74s-0.29,1.81-0.29,3.97
		v2.8H500.56z"/>
	<path class="st1" d="M527.55,151.14v14.87c2.44,0,3.66-1.3,3.66-3.89v-6.49c0-2.61,0.43-4.11,1.3-4.5h11.22
		c-0.87,1.25-1.3,3.09-1.3,5.53v5.33c0,1.86-0.76,3.41-2.28,4.64c-0.56,0.46-1.73,1.12-3.52,1.96c-1.15,0.56-2.45,0.85-3.89,0.89
		c0.67,0.12,1.93,0.43,3.78,0.95c3.98,1.27,5.97,3.49,5.97,6.66v6.72c0,2.46,0.43,4.31,1.3,5.56h-11.22c-0.87-1.17-1.3-2.67-1.3-4.5
		v-8.07c0-2.59-1.24-3.89-3.72-3.89v16.46h-11.51v-38.25H527.55z"/>
</g>
<g>
	<path class="st1" d="M57.34,69.61c9.58,0,19.15-0.01,28.73-0.01c0.05,20.95,0.1,41.9,0.15,62.85c-3.55,0.87-7.09,1.75-10.64,2.62
		c-0.03-20.34-0.07-40.69-0.1-61.03l-16.85,0.08l0.26,67.12c5.55,3.15,11.1,6.3,16.65,9.45c3.74-1.44,7.49-2.89,11.23-4.33
		c0,3.04,0,6.09,0,9.13c3.76,2,7.53,4,11.29,6c2.77-1.73,5.54-3.45,8.31-5.18l-0.23-19.89c3.83-1.89,7.67-3.78,11.5-5.68
		c-0.01,6.45-0.02,12.89-0.03,19.34c5.66-2.81,11.31-5.62,16.97-8.43V73.65l-17.09-0.35v45.17l-10.77,6.09
		c0.12-18.32,0.23-36.65,0.35-54.97c9.56-0.01,19.12-0.02,28.67-0.03c0.04-4.66,0.08-9.32,0.12-13.98
		c-26.19,0.02-52.39,0.04-78.58,0.06C57.3,60.29,57.32,64.95,57.34,69.61z"/>
	<path class="st1" d="M185.84,79.09c2.52,0.11,5.04,0.22,7.56,0.33c-0.11-5.38-1.05-16.33-7.61-28.02
		c-6.09-10.84-14.09-17.14-18.49-20.13c-0.78,2.18-1.56,4.37-2.34,6.55c-4.36-4.09-10.11-8.79-17.39-13.19
		c-8.66-5.24-16.76-8.41-23.16-10.39c0.03-2.45,0.06-4.9,0.1-7.35c-4.18-2.38-14.06-7.24-27.42-6.87
		C85.45,0.35,76.85,4.49,72.69,6.85c-0.12,2.39-0.25,4.77-0.37,7.16c-5.34,1.13-12.76,3.32-20.77,7.78
		c-9.01,5.02-15.26,10.96-19.13,15.27c-1.85-1.77-3.71-3.55-5.56-5.32c-4.51,3.02-11.84,8.79-17.79,18.37
		C1.31,62.61,0.17,74.71,0,80.42c2.5,0.34,4.99,0.68,7.49,1.02c-0.04,13.9-0.08,27.79-0.12,41.69c-2.4,0.43-4.8,0.86-7.2,1.29
		c1.49,6.76,4.62,16.97,11.7,27.62c5.05,7.59,10.56,13.09,14.98,16.85c2.6-0.43,5.21-0.86,7.81-1.29c3.66,3.7,9.4,8.68,17.47,12.83
		c7.47,3.85,14.33,5.64,19.25,6.53c0.33,2.69,0.66,5.38,0.99,8.07c4.5,2.33,13.13,6.06,24.58,6.38c12.87,0.36,22.59-3.76,27.21-6.09
		c0.6-3,1.21-6.01,1.81-9.01c5.45-2.12,11.64-4.94,18.22-8.7c6.67-3.82,12.3-7.79,16.93-11.47c1.74,1.38,3.48,2.76,5.23,4.13
		c4.44-3.22,11.27-9.05,16.85-18.33c7.38-12.26,8.66-24,8.89-29.88c-2.11,0.03-4.21,0.05-6.32,0.08
		C185.8,107.8,185.82,93.44,185.84,79.09z M96.7,174.37c-40.68,0-73.65-32.97-73.65-73.65S56.02,27.07,96.7,27.07
		s73.65,32.97,73.65,73.65S137.37,174.37,96.7,174.37z"/>
</g>
</svg>
